<svg width="24" height="23" viewBox="0 0 24 23" fill="none" xmlns="http://www.w3.org/2000/svg">
<path d="M12.0644 18.8188L11.945 18.9383L11.8136 18.8188C6.13971 13.6705 2.38899 10.2662 2.38899 6.81412C2.38899 4.42512 4.18074 2.63338 6.56973 2.63338C8.40926 2.63338 10.201 3.82788 10.8341 5.45239H13.0559C13.6889 3.82788 15.4807 2.63338 17.3202 2.63338C19.7092 2.63338 21.5009 4.42512 21.5009 6.81412C21.5009 10.2662 17.7502 13.6705 12.0644 18.8188ZM17.3202 0.244385C15.2418 0.244385 13.247 1.21193 11.945 2.72894C10.643 1.21193 8.64816 0.244385 6.56973 0.244385C2.89068 0.244385 0 3.12312 0 6.81412C0 11.3174 4.06129 15.0084 10.2129 20.5867L11.945 22.1634L13.677 20.5867C19.8286 15.0084 23.8899 11.3174 23.8899 6.81412C23.8899 3.12312 20.9993 0.244385 17.3202 0.244385Z" fill="#0A3641"/>
</svg>
