<svg width="29" height="29" viewBox="0 0 29 29" fill="none" xmlns="http://www.w3.org/2000/svg">
<path d="M14.5001 9.381C13.1404 9.381 11.8364 9.92022 10.875 10.8801C9.91354 11.8399 9.37341 13.1417 9.37341 14.4991C9.37341 15.8565 9.91354 17.1583 10.875 18.1181C11.8364 19.078 13.1404 19.6172 14.5001 19.6172C15.8597 19.6172 17.1637 19.078 18.1251 18.1181C19.0866 17.1583 19.6267 15.8565 19.6267 14.4991C19.6267 13.1417 19.0866 11.8399 18.1251 10.8801C17.1637 9.92022 15.8597 9.381 14.5001 9.381Z" fill="#0A3641"/>
<path fill-rule="evenodd" clip-rule="evenodd" d="M6.25009 0.455077C11.7333 -0.151692 17.2668 -0.151692 22.75 0.455077C25.7455 0.788935 28.1606 3.14326 28.5123 6.14483C29.1626 11.6955 29.1626 17.3028 28.5123 22.8535C28.1606 25.855 25.7455 28.2094 22.7516 28.5448C17.2679 29.1517 11.7338 29.1517 6.25009 28.5448C3.25455 28.2094 0.839513 25.855 0.487747 22.855C-0.162582 17.3039 -0.162582 11.696 0.487747 6.14483C0.839513 3.14326 3.25455 0.788935 6.25009 0.455077ZM22.3872 5.05035C21.9688 5.05035 21.5676 5.21626 21.2718 5.51159C20.9759 5.80693 20.8097 6.20748 20.8097 6.62515C20.8097 7.04281 20.9759 7.44337 21.2718 7.7387C21.5676 8.03403 21.9688 8.19995 22.3872 8.19995C22.8055 8.19995 23.2068 8.03403 23.5026 7.7387C23.7984 7.44337 23.9646 7.04281 23.9646 6.62515C23.9646 6.20748 23.7984 5.80693 23.5026 5.51159C23.2068 5.21626 22.8055 5.05035 22.3872 5.05035ZM7.00725 14.4992C7.00725 12.5153 7.79667 10.6126 9.20184 9.20978C10.607 7.80695 12.5128 7.01885 14.5 7.01885C16.4872 7.01885 18.3931 7.80695 19.7982 9.20978C21.2034 10.6126 21.9928 12.5153 21.9928 14.4992C21.9928 16.483 21.2034 18.3857 19.7982 19.7885C18.3931 21.1914 16.4872 21.9795 14.5 21.9795C12.5128 21.9795 10.607 21.1914 9.20184 19.7885C7.79667 18.3857 7.00725 16.483 7.00725 14.4992Z" fill="#0A3641"/>
</svg>
