<svg width="24" height="24" viewBox="0 0 24 24" fill="none" xmlns="http://www.w3.org/2000/svg">
<path fill-rule="evenodd" clip-rule="evenodd" d="M11.0475 18.9385C15.4056 18.9385 18.9385 15.4056 18.9385 11.0475C18.9385 6.68936 15.4056 3.15642 11.0475 3.15642C6.68936 3.15642 3.15642 6.68936 3.15642 11.0475C3.15642 15.4056 6.68936 18.9385 11.0475 18.9385ZM11.0475 22.0949C17.1488 22.0949 22.0949 17.1488 22.0949 11.0475C22.0949 4.94612 17.1488 0 11.0475 0C4.94612 0 0 4.94612 0 11.0475C0 17.1488 4.94612 22.0949 11.0475 22.0949Z" fill="#0A3641"/>
<path fill-rule="evenodd" clip-rule="evenodd" d="M21.7681 24L17.0334 19.2654L19.2654 17.0334L24 21.7681L21.7681 24Z" fill="#0A3641"/>
</svg>
