<svg width="22" height="22" viewBox="0 0 22 22" fill="none" xmlns="http://www.w3.org/2000/svg">
<path d="M10.7397 3.03842C11.0994 3.03842 11.4556 3.10927 11.7879 3.24692C12.1203 3.38457 12.4222 3.58633 12.6766 3.84068C12.9309 4.09503 13.1327 4.39699 13.2703 4.72931C13.408 5.06164 13.4788 5.41782 13.4788 5.77752C13.4788 6.13723 13.408 6.49341 13.2703 6.82573C13.1327 7.15806 12.9309 7.46001 12.6766 7.71436C12.4222 7.96871 12.1203 8.17047 11.7879 8.30813C11.4556 8.44578 11.0994 8.51663 10.7397 8.51663C10.0133 8.51663 9.31658 8.22804 8.8029 7.71436C8.28922 7.20068 8.00063 6.50398 8.00063 5.77752C8.00063 5.05107 8.28922 4.35436 8.8029 3.84068C9.31658 3.327 10.0133 3.03842 10.7397 3.03842ZM10.7397 14.7774C14.6136 14.7774 18.6962 16.6818 18.6962 17.5165V18.9513H2.78329V17.5165C2.78329 16.6818 6.86586 14.7774 10.7397 14.7774ZM10.7397 0.560181C7.85716 0.560181 5.5224 2.89494 5.5224 5.77752C5.5224 8.6601 7.85716 10.9949 10.7397 10.9949C13.6223 10.9949 15.9571 8.6601 15.9571 5.77752C15.9571 2.89494 13.6223 0.560181 10.7397 0.560181ZM10.7397 12.2992C7.25716 12.2992 0.305054 14.047 0.305054 17.5165V21.4295H21.1744V17.5165C21.1744 14.047 14.2223 12.2992 10.7397 12.2992Z" fill="#0A3641"/>
</svg>
