<svg width="20" height="25" viewBox="0 0 20 25" fill="none" xmlns="http://www.w3.org/2000/svg">
<path d="M16.9385 5.40814H14.6044C14.6044 2.82899 12.5154 0.73999 9.93627 0.73999C7.35712 0.73999 5.26812 2.82899 5.26812 5.40814H2.93405C1.65031 5.40814 0.599976 6.45847 0.599976 7.74221V21.7467C0.599976 23.0304 1.65031 24.0807 2.93405 24.0807H16.9385C18.2222 24.0807 19.2726 23.0304 19.2726 21.7467V7.74221C19.2726 6.45847 18.2222 5.40814 16.9385 5.40814ZM9.93627 3.07406C11.22 3.07406 12.2703 4.1244 12.2703 5.40814H7.6022C7.6022 4.1244 8.65253 3.07406 9.93627 3.07406ZM16.9385 21.7467H2.93405V7.74221H5.26812V10.0763C5.26812 10.7182 5.79329 11.2433 6.43516 11.2433C7.07703 11.2433 7.6022 10.7182 7.6022 10.0763V7.74221H12.2703V10.0763C12.2703 10.7182 12.7955 11.2433 13.4374 11.2433C14.0793 11.2433 14.6044 10.7182 14.6044 10.0763V7.74221H16.9385V21.7467Z" fill="#0A3641"/>
</svg>
